<?xml version="1.0" encoding="UTF-8" standalone="no"?>
<!DOCTYPE svg PUBLIC "-//W3C//DTD SVG 1.1//EN"
 "http://www.w3.org/Graphics/SVG/1.1/DTD/svg11.dtd">
<!-- Generated by graphviz version 2.49.3 (20211027.1534)
 -->
<!-- Title: workflow Pages: 1 -->
<svg width="154pt" height="234pt"
 viewBox="0.00 0.00 158.00 241.00" xmlns="http://www.w3.org/2000/svg" xmlns:xlink="http://www.w3.org/1999/xlink">
<g id="graph0" class="graph" transform="scale(0.97 0.97) rotate(0) translate(4 237)">
<title>workflow</title>
<g id="clust2" class="cluster">
<title>cluster_outputs</title>
<polygon fill="transparent" stroke="black" stroke-dasharray="5,2" points="8,-8 8,-63 98,-63 98,-8 8,-8"/>
<text text-anchor="middle" x="53" y="-15" font-family="Times,serif" font-size="10.00">Workflow Outputs</text>
</g>
<g id="clust1" class="cluster">
<title>cluster_inputs</title>
<polygon fill="transparent" stroke="black" stroke-dasharray="5,2" points="12,-170 12,-225 142,-225 142,-170 12,-170"/>
<text text-anchor="middle" x="53.5" y="-213" font-family="Times,serif" font-size="10.00">Workflow Inputs</text>
</g>
<!-- input -->
<g id="node1" class="node">
<title>input</title>
<polygon fill="#94ddf4" stroke="black" points="20,-178.5 20,-197.5 58,-197.5 58,-178.5 20,-178.5"/>
<text text-anchor="middle" x="39" y="-185.5" font-family="Helvetica,sans-Serif" font-size="10.00">input</text>
</g>
<!-- rev -->
<g id="node5" class="node">
<title>rev</title>
<polygon fill="lightgoldenrodyellow" stroke="black" points="28,-125.5 28,-144.5 58,-144.5 58,-125.5 28,-125.5"/>
<text text-anchor="middle" x="43" y="-132.5" font-family="Helvetica,sans-Serif" font-size="10.00">rev</text>
</g>
<!-- input&#45;&gt;rev -->
<g id="edge3" class="edge">
<title>input&#45;&gt;rev</title>
<path fill="none" stroke="black" d="M39.7,-178.12C40.26,-170.88 41.08,-160.47 41.76,-151.82"/>
<polygon fill="black" stroke="black" points="44.21,-151.95 42.31,-144.78 39.32,-151.57 44.21,-151.95"/>
<text text-anchor="middle" x="51" y="-155.6" font-family="Helvetica,sans-Serif" font-size="8.00">input</text>
</g>
<!-- reverse_sort -->
<g id="node2" class="node">
<title>reverse_sort</title>
<polygon fill="#94ddf4" stroke="black" points="62.5,-178.5 62.5,-197.5 133.5,-197.5 133.5,-178.5 62.5,-178.5"/>
<text text-anchor="middle" x="98" y="-185.5" font-family="Helvetica,sans-Serif" font-size="10.00">reverse_sort</text>
</g>
<!-- sorted -->
<g id="node4" class="node">
<title>sorted</title>
<polygon fill="lightgoldenrodyellow" stroke="black" points="31,-80.5 31,-99.5 75,-99.5 75,-80.5 31,-80.5"/>
<text text-anchor="middle" x="53" y="-87.5" font-family="Helvetica,sans-Serif" font-size="10.00">sorted</text>
</g>
<!-- reverse_sort&#45;&gt;sorted -->
<g id="edge1" class="edge">
<title>reverse_sort&#45;&gt;sorted</title>
<path fill="none" stroke="black" d="M94.88,-178.48C89.36,-163.76 77.22,-132.76 64,-108 63.64,-107.32 63.25,-106.63 62.86,-105.93"/>
<polygon fill="black" stroke="black" points="64.86,-104.51 59.11,-99.83 60.68,-107.08 64.86,-104.51"/>
<text text-anchor="middle" x="95" y="-133.1" font-family="Helvetica,sans-Serif" font-size="8.00">reverse</text>
</g>
<!-- output -->
<g id="node3" class="node">
<title>output</title>
<polygon fill="#94ddf4" stroke="black" points="31,-35.5 31,-54.5 75,-54.5 75,-35.5 31,-35.5"/>
<text text-anchor="middle" x="53" y="-42.5" font-family="Helvetica,sans-Serif" font-size="10.00">output</text>
</g>
<!-- sorted&#45;&gt;output -->
<g id="edge4" class="edge">
<title>sorted&#45;&gt;output</title>
<path fill="none" stroke="black" d="M53,-80.3C53,-75.05 53,-68.21 53,-62.02"/>
<polygon fill="black" stroke="black" points="55.45,-61.69 53,-54.69 50.55,-61.69 55.45,-61.69"/>
</g>
<!-- rev&#45;&gt;sorted -->
<g id="edge2" class="edge">
<title>rev&#45;&gt;sorted</title>
<path fill="none" stroke="black" d="M44.99,-125.33C46.15,-120.27 47.65,-113.77 49,-108 49.1,-107.58 49.2,-107.15 49.3,-106.71"/>
<polygon fill="black" stroke="black" points="51.74,-107.02 50.96,-99.65 46.97,-105.9 51.74,-107.02"/>
<text text-anchor="middle" x="58" y="-110.6" font-family="Helvetica,sans-Serif" font-size="8.00">input</text>
</g>
</g>
</svg>
